<svg width="53" height="53" viewBox="0 0 53 53" fill="none" xmlns="http://www.w3.org/2000/svg">
<circle cx="26.5" cy="26.5" r="26.5" fill="#001F3F"/>
<path d="M13.7793 37.0993C13.1935 37.6851 13.1935 38.6348 13.7793 39.2206C14.3651 39.8064 15.3149 39.8064 15.9007 39.2206L13.7793 37.0993ZM39.4287 15.0712C39.4287 14.2428 38.7572 13.5712 37.9287 13.5712H24.4287C23.6003 13.5712 22.9287 14.2428 22.9287 15.0712C22.9287 15.8997 23.6003 16.5712 24.4287 16.5712L36.4287 16.5712L36.4287 28.5712C36.4287 29.3997 37.1003 30.0712 37.9287 30.0712C38.7572 30.0712 39.4287 29.3997 39.4287 28.5712V15.0712ZM15.9007 39.2206L38.9894 16.1319L36.8681 14.0106L13.7793 37.0993L15.9007 39.2206Z" fill="#FAFAFA"/>
</svg>
