<svg width="47" height="47" viewBox="0 0 47 47" fill="none" xmlns="http://www.w3.org/2000/svg">
<path d="M11.75 38.1875V10.9961C11.75 10.0952 12.0522 9.34325 12.6567 8.74008C13.2599 8.13561 14.0119 7.83337 14.9127 7.83337H32.0873C32.9881 7.83337 33.7401 8.13561 34.3433 8.74008C34.9478 9.34325 35.25 10.0952 35.25 10.9961V38.1875L23.5 33.1409L11.75 38.1875ZM13.7083 35.1521L23.5 30.9417L33.2917 35.1521V10.9961C33.2917 10.6958 33.1663 10.4197 32.9157 10.1677C32.6637 9.91704 32.3876 9.79171 32.0873 9.79171H14.9127C14.6124 9.79171 14.3363 9.91704 14.0843 10.1677C13.8337 10.4197 13.7083 10.6958 13.7083 10.9961V35.1521Z" fill="black"/>
</svg>
