<svg width="33" height="33" viewBox="0 0 33 33" fill="none" xmlns="http://www.w3.org/2000/svg">
<path d="M27.5426 28.5863C28.1751 29.2188 29.1514 28.2425 28.5189 27.6238L23.3626 22.4538C25.1714 20.4525 26.1712 17.85 26.1676 15.1525C26.1676 9.11627 21.2589 4.20752 15.2226 4.20752C9.1864 4.20752 4.27765 9.11627 4.27765 15.1525C4.27765 21.1888 9.1864 26.0975 15.2226 26.0975C17.9451 26.0975 20.4614 25.0938 22.3864 23.43L27.5426 28.5863ZM5.65127 15.1525C5.65127 9.87252 9.95502 5.58252 15.2213 5.58252C20.5013 5.58252 24.7913 9.87252 24.7913 15.1525C24.7913 20.4325 20.5013 24.7225 15.2213 24.7225C9.95502 24.7225 5.65127 20.4325 5.65127 15.1525Z" fill="white" fill-opacity="0.8"/>
</svg>
