<svg width="18" height="23" viewBox="0 0 18 23" fill="none" xmlns="http://www.w3.org/2000/svg">
<path d="M9 0C6.61392 0.0028261 4.32637 0.955708 2.63915 2.64962C0.951939 4.34353 0.0028245 6.64016 9.57508e-06 9.03571C-0.00284824 10.9934 0.634084 12.8979 1.8131 14.4571C1.8131 14.4571 2.05855 14.7816 2.09864 14.8284L9 23L15.9046 14.8243C15.9406 14.7808 16.1869 14.4571 16.1869 14.4571L16.1877 14.4547C17.3661 12.8961 18.0028 10.9925 18 9.03571C17.9972 6.64016 17.0481 4.34353 15.3608 2.64962C13.6736 0.955708 11.3861 0.0028261 9 0ZM9 12.3214C8.35272 12.3214 7.71997 12.1287 7.18177 11.7677C6.64358 11.4066 6.2241 10.8935 5.9764 10.2931C5.72869 9.69272 5.66388 9.03207 5.79016 8.3947C5.91644 7.75734 6.22814 7.17188 6.68583 6.71236C7.14353 6.25285 7.72668 5.93991 8.36152 5.81313C8.99637 5.68635 9.6544 5.75142 10.2524 6.00011C10.8504 6.2488 11.3616 6.66994 11.7212 7.21027C12.0808 7.7506 12.2727 8.38586 12.2727 9.03571C12.2716 9.90681 11.9265 10.7419 11.313 11.3579C10.6994 11.9738 9.86765 12.3203 9 12.3214Z" fill="black" fill-opacity="0.8"/>
</svg>
