<svg width="250" height="50" viewBox="0 0 250 50" fill="none" xmlns="http://www.w3.org/2000/svg">
<path d="M14.625 6.75H30.375C36.375 6.75 41.25 11.625 41.25 17.625V33.375C41.25 36.2592 40.1042 39.0253 38.0648 41.0648C36.0253 43.1042 33.2592 44.25 30.375 44.25H14.625C8.625 44.25 3.75 39.375 3.75 33.375V17.625C3.75 14.7408 4.89576 11.9747 6.93521 9.93521C8.97467 7.89576 11.7408 6.75 14.625 6.75ZM14.25 10.5C12.4598 10.5 10.7429 11.2112 9.47703 12.477C8.21116 13.7429 7.5 15.4598 7.5 17.25V33.75C7.5 37.4813 10.5188 40.5 14.25 40.5H30.75C32.5402 40.5 34.2571 39.7888 35.523 38.523C36.7888 37.2571 37.5 35.5402 37.5 33.75V17.25C37.5 13.5188 34.4813 10.5 30.75 10.5H14.25ZM32.3438 13.3125C32.9654 13.3125 33.5615 13.5594 34.001 13.999C34.4406 14.4385 34.6875 15.0346 34.6875 15.6562C34.6875 16.2779 34.4406 16.874 34.001 17.3135C33.5615 17.7531 32.9654 18 32.3438 18C31.7221 18 31.126 17.7531 30.6865 17.3135C30.2469 16.874 30 16.2779 30 15.6562C30 15.0346 30.2469 14.4385 30.6865 13.999C31.126 13.5594 31.7221 13.3125 32.3438 13.3125ZM22.5 16.125C24.9864 16.125 27.371 17.1127 29.1291 18.8709C30.8873 20.629 31.875 23.0136 31.875 25.5C31.875 27.9864 30.8873 30.371 29.1291 32.1291C27.371 33.8873 24.9864 34.875 22.5 34.875C20.0136 34.875 17.629 33.8873 15.8709 32.1291C14.1127 30.371 13.125 27.9864 13.125 25.5C13.125 23.0136 14.1127 20.629 15.8709 18.8709C17.629 17.1127 20.0136 16.125 22.5 16.125ZM22.5 19.875C21.0082 19.875 19.5774 20.4676 18.5225 21.5225C17.4676 22.5774 16.875 24.0082 16.875 25.5C16.875 26.9918 17.4676 28.4226 18.5225 29.4775C19.5774 30.5324 21.0082 31.125 22.5 31.125C23.9918 31.125 25.4226 30.5324 26.4775 29.4775C27.5324 28.4226 28.125 26.9918 28.125 25.5C28.125 24.0082 27.5324 22.5774 26.4775 21.5225C25.4226 20.4676 23.9918 19.875 22.5 19.875Z" fill="#D9D9D9" fill-opacity="0.9"/>
<path d="M90.7582 22.8203L103.508 8H100.486L89.4162 20.868L80.5743 8H70.3762L83.7468 27.4589L70.3762 43H73.3977L85.0883 29.411L94.4256 43H104.624L90.7574 22.8203H90.7582ZM86.62 27.6301L85.2652 25.6925L74.4863 10.2745H79.127L87.8254 22.7175L89.18 24.6551L100.487 40.8289H95.8472L86.62 27.6309V27.6301Z" fill="#D9D9D9" fill-opacity="0.9"/>
<path fill-rule="evenodd" clip-rule="evenodd" d="M159.484 44.25V29.7281H164.359L165.089 24.0694H159.483V20.4563C159.483 18.8175 159.938 17.7 162.289 17.7H165.286V12.6375C163.835 12.4831 162.376 12.408 160.917 12.4125C156.597 12.4125 153.64 15.0506 153.64 19.8938V24.0694H148.75V29.7281H153.638V44.25H135.82C134.676 44.25 133.75 43.3237 133.75 42.18V8.82C133.75 7.67625 134.676 6.75 135.82 6.75H169.18C170.324 6.75 171.25 7.67625 171.25 8.82V42.18C171.25 43.3237 170.324 44.25 169.18 44.25H159.484Z" fill="#D9D9D9" fill-opacity="0.9"/>
<path d="M239.583 6.25C240.688 6.25 241.748 6.68899 242.53 7.47039C243.311 8.25179 243.75 9.3116 243.75 10.4167V39.5833C243.75 40.6884 243.311 41.7482 242.53 42.5296C241.748 43.311 240.688 43.75 239.583 43.75H210.417C209.312 43.75 208.252 43.311 207.47 42.5296C206.689 41.7482 206.25 40.6884 206.25 39.5833V10.4167C206.25 9.3116 206.689 8.25179 207.47 7.47039C208.252 6.68899 209.312 6.25 210.417 6.25H239.583ZM238.542 38.5417V27.5C238.542 25.6987 237.826 23.9713 236.552 22.6976C235.279 21.4239 233.551 20.7083 231.75 20.7083C229.979 20.7083 227.917 21.7917 226.917 23.4167V21.1042H221.104V38.5417H226.917V28.2708C226.917 26.6667 228.208 25.3542 229.812 25.3542C230.586 25.3542 231.328 25.6615 231.875 26.2084C232.422 26.7554 232.729 27.4973 232.729 28.2708V38.5417H238.542ZM214.333 17.8333C215.262 17.8333 216.152 17.4646 216.808 16.8082C217.465 16.1518 217.833 15.2616 217.833 14.3333C217.833 12.3958 216.271 10.8125 214.333 10.8125C213.4 10.8125 212.504 11.1834 211.844 11.8437C211.183 12.504 210.812 13.3996 210.812 14.3333C210.812 16.2708 212.396 17.8333 214.333 17.8333ZM217.229 38.5417V21.1042H211.458V38.5417H217.229Z" fill="#D9D9D9" fill-opacity="0.9"/>
</svg>
