<svg width="230" height="50" viewBox="0 0 230 50" fill="none" xmlns="http://www.w3.org/2000/svg">
<path d="M29 9.1582L32.3677 19.5229H43.2658L34.4491 25.9287L37.8168 36.2935L29 29.8877L20.1832 36.2935L23.5509 25.9287L14.7342 19.5229H25.6323L29 9.1582Z" fill="#001F3F"/>
<path d="M73 9.1582L76.3677 19.5229H87.2658L78.4491 25.9287L81.8168 36.2935L73 29.8877L64.1832 36.2935L67.5509 25.9287L58.7342 19.5229H69.6323L73 9.1582Z" fill="#001F3F"/>
<path d="M117 9.1582L120.368 19.5229H131.266L122.449 25.9287L125.817 36.2935L117 29.8877L108.183 36.2935L111.551 25.9287L102.734 19.5229H113.632L117 9.1582Z" fill="#001F3F"/>
<path d="M161 9.1582L164.368 19.5229H175.266L166.449 25.9287L169.817 36.2935L161 29.8877L152.183 36.2935L155.551 25.9287L146.734 19.5229H157.632L161 9.1582Z" fill="#D9D9D9"/>
<path d="M205 9.1582L208.368 19.5229H219.266L210.449 25.9287L213.817 36.2935L205 29.8877L196.183 36.2935L199.551 25.9287L190.734 19.5229H201.632L205 9.1582Z" fill="#D9D9D9"/>
</svg>
