<svg width="230" height="48" viewBox="0 0 230 48" fill="none" xmlns="http://www.w3.org/2000/svg">
<path d="M29 9L32.3677 19.3647H43.2658L34.4491 25.7705L37.8168 36.1353L29 29.7295L20.1832 36.1353L23.5509 25.7705L14.7342 19.3647H25.6323L29 9Z" fill="#001F3F"/>
<path d="M73 9L76.3677 19.3647H87.2658L78.4491 25.7705L81.8168 36.1353L73 29.7295L64.1832 36.1353L67.5509 25.7705L58.7342 19.3647H69.6323L73 9Z" fill="#001F3F"/>
<path d="M117 9L120.368 19.3647H131.266L122.449 25.7705L125.817 36.1353L117 29.7295L108.183 36.1353L111.551 25.7705L102.734 19.3647H113.632L117 9Z" fill="#001F3F"/>
<path d="M161 9L164.368 19.3647H175.266L166.449 25.7705L169.817 36.1353L161 29.7295L152.183 36.1353L155.551 25.7705L146.734 19.3647H157.632L161 9Z" fill="#001F3F"/>
<path d="M205 9L208.368 19.3647H219.266L210.449 25.7705L213.817 36.1353L205 29.7295L196.183 36.1353L199.551 25.7705L190.734 19.3647H201.632L205 9Z" fill="#D9D9D9"/>
</svg>
